<?xml version="1.0" encoding="utf-8"?>
<!-- Generator: Adobe Illustrator 24.3.0, SVG Export Plug-In . SVG Version: 6.00 Build 0)  -->
<svg version="1.1" id="Layer_1" xmlns="http://www.w3.org/2000/svg" xmlns:xlink="http://www.w3.org/1999/xlink" x="0px" y="0px"
	 viewBox="0 0 100 20" style="enable-background:new 0 0 100 20;" xml:space="preserve">
<style type="text/css">
	.st0{fill:#FF4954;}
	.st1{fill-rule:evenodd;clip-rule:evenodd;fill:#FFFFFF;}
	.st2{fill:#FFFFFF;}
</style>
<g>
	<path class="st0" d="M75.6,18.3c-1.5,1.2-3.2,1.7-5.1,1.7H2.7C1.2,20,0,18.8,0,17.3L0,0l100,0L75.6,18.3z"/>
	<g>
		<path class="st1" d="M18.1,13.1C18.1,13.1,18.2,13.1,18.1,13.1l0.1-0.1C18.2,13.1,18.2,13.1,18.1,13.1L18.1,13.1
			c0.1,0.1,0.1,0.1,0.1,0.2c0,0.3-0.1,0.7-0.1,1c0,0.1,0,0.1,0.1,0.1c0.6,0,1.1,0,1.7,0c0.1,0,0.1,0,0.1-0.1c0-0.1,0-0.2,0-0.3
			c0-0.3,0.1-0.6,0.1-0.9c0.1-0.7,0.2-1.4,0.4-2.1c0.1-0.5,0.2-1,0.3-1.5c0-0.2,0.1-0.4,0.1-0.6c0.1-0.7,0.2-1.3,0.4-2
			c0.1-0.6,0.2-1.3,0.3-1.9c0.1-0.7,0.2-1.3,0.4-2C22,2.8,22,2.6,22,2.3l0,0c0-0.1,0-0.2,0.1-0.3c0,0-0.1,0-0.1,0
			c-0.2,0-0.4,0-0.6,0c-0.4,0-0.8,0-1.3,0C20,2,20,2,20,2.1c0,0.2-0.1,0.4-0.1,0.5c-0.1,0.7-0.2,1.3-0.4,2c-0.1,0.7-0.2,1.4-0.4,2.1
			c0,0,0,0.1,0,0.1c0,0,0,0-0.1-0.1c-0.2-0.5-0.6-0.7-1.1-0.9c-0.8-0.3-1.6-0.2-2.4,0.1c-1.1,0.4-2,1.2-2.6,2.3
			c-0.5,0.9-0.7,1.8-0.8,2.8c0,0.5,0,1,0.2,1.5c0.2,0.8,0.7,1.4,1.4,1.8c0.7,0.4,1.5,0.4,2.3,0.2C16.9,14.3,17.6,13.8,18.1,13.1z
			 M14.4,11.1L14.4,11.1L14.4,11.1c0,0,0-0.1,0-0.1c0-1,0.3-1.9,0.9-2.7c0.4-0.4,0.8-0.8,1.4-0.8c0.5-0.1,1,0,1.4,0.3
			c0.3,0.3,0.5,0.7,0.5,1.1c0,0.3,0,0.6-0.1,1l0,0l0,0c0,0,0,0.1,0,0.1c0,0.1,0,0.2-0.1,0.3c0,0.3-0.1,0.6-0.2,0.9
			c-0.3,0.9-0.8,1.5-1.7,1.7C16,13,15.5,12.9,15,12.5c-0.3-0.3-0.5-0.7-0.6-1.1C14.4,11.3,14.4,11.2,14.4,11.1z"/>
		<path class="st1" d="M23.7,7.2C23.7,7.2,23.7,7.2,23.7,7.2C23.7,7.2,23.7,7.2,23.7,7.2c-0.1-0.1,0-0.2,0-0.3l0,0
			c0-0.1,0-0.1,0-0.2c0-0.1,0-0.1,0-0.2l0,0c0-0.2,0-0.3,0.1-0.5c0-0.1,0-0.1-0.1-0.1H22c-0.1,0-0.1,0-0.1,0.1
			c0,0.4-0.1,0.7-0.2,1.1c-0.1,0.6-0.2,1.3-0.3,1.9c-0.1,0.5-0.2,1-0.3,1.6c0,0.2-0.1,0.5-0.1,0.7c-0.1,0.7-0.2,1.3-0.4,2
			c-0.1,0.6-0.2,1.2-0.3,1.9c-0.1,0.7-0.3,1.5-0.4,2.2c0,0.1,0,0.2-0.1,0.3c0,0,0,0.1,0,0.1c0,0,0,0,0,0h2c0.1,0,0.1,0,0.1-0.1
			c0.1-0.4,0.1-0.8,0.2-1.2l0-0.2c0.2-0.9,0.3-1.7,0.5-2.6c0-0.1,0-0.1,0-0.2l0,0l0,0c0,0,0,0,0,0l0,0c0,0,0,0,0.1,0.1
			c0.2,0.3,0.4,0.5,0.7,0.7c0.4,0.3,0.9,0.4,1.5,0.4c0.4,0,0.8-0.1,1.2-0.2c1.3-0.4,2.2-1.2,2.8-2.4c0.4-0.8,0.7-1.7,0.8-2.7
			c0-0.6,0-1.1-0.2-1.7c-0.3-0.8-0.8-1.4-1.6-1.8c-0.7-0.3-1.4-0.3-2.1-0.1C25.1,6,24.4,6.5,23.7,7.2C23.8,7.2,23.8,7.2,23.7,7.2z
			 M27.6,9.2c0,0.1,0,0.1,0,0.2v0c-0.1,1-0.3,1.9-0.9,2.7c-0.4,0.5-0.9,0.8-1.5,0.9c-0.6,0.1-1.2,0-1.6-0.5c-0.3-0.3-0.4-0.6-0.4-1
			c0-0.3,0-0.6,0.1-0.9c0-0.1,0-0.2,0.1-0.3c0-0.3,0.1-0.6,0.2-0.9c0.3-1,0.9-1.7,1.9-2c0.4-0.1,0.8-0.1,1.1,0.1
			c0.6,0.2,0.9,0.7,1,1.3C27.6,8.9,27.6,9.1,27.6,9.2z"/>
		<path class="st1" d="M63.9,13.4c0,0.1,0,0.2,0,0.2c0,0,0,0.1,0,0.1c-0.2,0.9-0.3,1.7-0.5,2.6c-0.1,0.5-0.2,0.9-0.2,1.4
			c0,0.1,0,0.1-0.1,0.1h-2c0,0,0,0,0,0c0,0,0-0.1,0-0.1v0c0-0.1,0-0.2,0.1-0.3c0.1-0.7,0.3-1.5,0.4-2.2c0.1-0.3,0.1-0.7,0.2-1
			c0.1-0.3,0.1-0.7,0.2-1c0.1-0.7,0.3-1.4,0.4-2.1c0-0.2,0.1-0.5,0.1-0.7l0,0l0,0l0,0l0,0c0.1-0.4,0.2-0.8,0.2-1.3
			c0.1-0.6,0.2-1.1,0.3-1.7C62.8,6.9,62.9,6.4,63,6c0-0.1,0-0.1,0.1-0.1h1.7c0.1,0,0.1,0,0.1,0.1c0,0.3-0.1,0.6-0.1,0.9
			c0,0.1,0,0.1,0,0.2l0,0.1c0,0,0,0,0,0.1l0,0l0,0c0,0,0,0,0,0c0,0,0.1,0,0.1-0.1c0.4-0.4,0.8-0.8,1.3-1c0.5-0.2,1-0.4,1.6-0.4
			c0.5,0,1,0.1,1.5,0.3c0.7,0.4,1.2,1,1.4,1.7c0.2,0.5,0.2,1,0.2,1.6c-0.1,0.9-0.3,1.8-0.8,2.7c-0.6,1.1-1.5,2-2.8,2.4
			c-0.4,0.1-0.8,0.2-1.2,0.2c-0.5,0-1-0.1-1.5-0.4C64.3,14,64.1,13.8,63.9,13.4C63.9,13.5,63.9,13.5,63.9,13.4
			C63.9,13.5,63.9,13.4,63.9,13.4z M68.6,9.2c0-0.1,0-0.3-0.1-0.4c-0.1-0.4-0.3-0.8-0.6-1.1c-0.5-0.3-1-0.4-1.5-0.2
			c-1,0.3-1.6,1-1.9,2c-0.1,0.3-0.1,0.6-0.2,0.8c0,0.1,0,0.2-0.1,0.3c-0.1,0.3-0.1,0.6-0.1,0.9c0,0.3,0.1,0.6,0.3,0.9
			c0.4,0.6,1,0.7,1.7,0.6c0.6-0.1,1.1-0.4,1.5-0.9c0.6-0.8,0.8-1.6,0.9-2.6h0C68.7,9.3,68.7,9.3,68.6,9.2L68.6,9.2z"/>
		<path class="st2" d="M48,6c0.2-1.3,0.5-2.7,0.7-4c-0.7,0-1.4,0-2.1,0c0,0,0,0-0.1,0c0,0,0,0,0,0c0,0.2-0.1,0.3-0.1,0.5l0,0
			c0,0,0,0.1,0,0.1c-0.2,1.1-0.4,2.2-0.6,3.3c-0.1,0.5-0.2,1-0.3,1.5c-0.1,0.5-0.2,1-0.3,1.5c-0.1,0.5-0.2,1-0.3,1.5
			c-0.1,0.4-0.1,0.9-0.2,1.3c-0.2,0.9-0.3,1.7-0.5,2.6c0,0.1,0,0.1,0.1,0.1c0.3,0,0.7,0,1,0c0.3,0,0.7,0,1,0c0,0,0,0,0.1,0
			c0,0,0,0,0,0c0-0.2,0.1-0.4,0.1-0.6v0c0-0.1,0-0.1,0-0.2c0.1-0.7,0.2-1.3,0.4-2c0.1-0.7,0.2-1.3,0.4-2l0,0
			c0.1-0.3,0.1-0.6,0.3-0.9c0.5-0.7,1.1-1.2,2.1-1.1c0.5,0,0.9,0.4,1,0.9c0.1,0.5,0,0.9,0,1.4c-0.1,0.7-0.2,1.3-0.4,2
			c-0.1,0.7-0.2,1.3-0.4,2l0,0l0,0c0,0.2-0.1,0.4-0.1,0.6c0,0,0.1,0,0.1,0c0.2,0,0.4,0,0.6,0c0.4,0,0.8,0,1.3,0c0.1,0,0.1,0,0.1-0.1
			c0-0.3,0.1-0.5,0.1-0.8l0,0c0-0.2,0.1-0.3,0.1-0.5c0-0.2,0.1-0.4,0.1-0.7l0,0v0c0.1-0.5,0.2-1,0.3-1.5c0-0.1,0-0.2,0-0.3l0-0.1
			C52.9,10,53,9.4,53,8.8c0.1-0.4,0-0.9-0.1-1.3c-0.2-0.7-0.5-1.2-1.1-1.5c-0.6-0.3-1.3-0.3-1.9-0.2c-0.8,0.2-1.5,0.6-2,1.2
			c0,0-0.1,0-0.1,0.1l0,0L48,6z"/>
		<path class="st2" d="M38.8,5.9c0,0.2-0.1,0.5-0.1,0.7c-0.1,0.7-0.2,1.3-0.4,2c0,0.2-0.1,0.5-0.1,0.7l0,0c-0.1,0.4-0.1,0.8-0.2,1.2
			c0,0.1,0,0.3-0.1,0.4v0v0v0c-0.1,0.6-0.2,1.2-0.3,1.8c-0.1,0.4-0.1,0.8-0.2,1.2l0,0c0,0.1,0,0.3-0.1,0.4c0,0.1,0,0.1-0.1,0.1
			c-0.4,0-0.7,0-1.1,0c-0.2,0-0.4,0-0.5,0c-0.1,0-0.1,0-0.1-0.1l0,0c0-0.2,0-0.5,0.1-0.7c0-0.1,0-0.1,0-0.2c0-0.1,0-0.2,0-0.2l0,0
			l0,0c0,0-0.1,0-0.1,0.1c-0.6,0.7-1.3,1.2-2.2,1.4c-0.6,0.1-1.1,0.1-1.6-0.1c-0.8-0.3-1.2-0.8-1.4-1.6c-0.1-0.5-0.1-0.9,0-1.4
			c0.1-0.6,0.2-1.2,0.3-1.8l0-0.1c0.1-0.5,0.2-1,0.3-1.5c0-0.2,0.1-0.4,0.1-0.6C31,6.9,31.1,6.5,31.1,6c0-0.1,0-0.1,0.1-0.1h2
			c0,0,0,0,0.1,0c0,0.1,0,0.1,0,0.2v0c0,0.1,0,0.3-0.1,0.4c-0.1,0.7-0.2,1.4-0.4,2.1c0,0.2-0.1,0.3-0.1,0.5l0,0
			c-0.1,0.5-0.2,0.9-0.2,1.4c-0.1,0.5-0.1,1,0,1.4c0.1,0.5,0.5,0.8,1,0.9c0.7,0.1,1.2-0.2,1.6-0.6c0.4-0.4,0.6-0.9,0.7-1.4
			c0.1-0.5,0.2-0.9,0.2-1.4c0-0.2,0.1-0.4,0.1-0.6c0.1-0.6,0.2-1.3,0.3-1.9c0.1-0.3,0.1-0.6,0.2-0.9c0-0.1,0-0.1,0.1-0.1L38.8,5.9
			C38.8,5.9,38.8,5.9,38.8,5.9z"/>
		<path class="st2" d="M56.2,6.4L56.2,6.4c0-0.2,0.1-0.4,0.1-0.5c0,0,0,0-0.1,0h-2c-0.1,0-0.1,0-0.1,0.1c-0.1,0.6-0.2,1.2-0.3,1.7
			c0,0.2-0.1,0.4-0.1,0.6c-0.1,0.4-0.2,0.8-0.2,1.3c-0.1,0.6-0.2,1.2-0.3,1.8c-0.1,0.5-0.1,0.9,0,1.4c0.2,0.7,0.5,1.2,1.2,1.5
			c0.6,0.3,1.2,0.3,1.9,0.2c0.9-0.2,1.7-0.6,2.2-1.3c0,0,0.1-0.1,0.1-0.1l0,0c0,0,0,0,0,0.1l0,0l0,0c0,0.1,0,0.1,0,0.2
			c0,0.1,0,0.2,0,0.2c0,0.2,0,0.5-0.1,0.7c0,0.1,0,0.1,0.1,0.1c0.2,0,0.4,0,0.5,0h0c0.4,0,0.7,0,1.1,0c0.1,0,0.1,0,0.1-0.1
			c0,0,0-0.1,0-0.1l0-0.1c0.1-0.4,0.1-0.8,0.2-1.2c0.1-0.6,0.2-1.2,0.3-1.9v0l0-0.1c0.1-0.5,0.2-1,0.3-1.5l0,0l0,0
			c0-0.2,0.1-0.4,0.1-0.6l0.4-2.4c0-0.1,0-0.2,0-0.3l0,0l0,0c0-0.1,0-0.1,0-0.2c0,0,0,0,0,0h-2c0,0,0,0,0,0c0,0,0,0,0,0
			c0,0.2-0.1,0.4-0.1,0.6l0,0c0,0,0,0.1,0,0.1c-0.1,0.7-0.3,1.4-0.4,2.1c0,0.2-0.1,0.4-0.1,0.6v0l0,0c-0.1,0.5-0.2,1-0.3,1.5
			c-0.1,0.5-0.3,0.9-0.6,1.3c-0.5,0.5-1,0.8-1.8,0.7c-0.2,0-0.4-0.1-0.6-0.2c-0.2-0.1-0.3-0.3-0.4-0.6c-0.1-0.4-0.1-0.8,0-1.3
			c0.1-0.4,0.1-0.7,0.2-1.1l0,0C55.8,9,55.9,8.3,56,7.6C56.1,7.2,56.1,6.8,56.2,6.4z"/>
		<path class="st1" d="M5.8,7.8c0-0.1,0-0.3-0.1-0.4c0-0.3-0.1-0.6-0.1-0.9c0-0.1,0-0.1,0.1-0.1c0.1,0,0.2-0.1,0.3-0.1
			c0.2-0.1,0.4-0.2,0.6-0.3c0.6-0.2,1.3-0.3,2-0.3c0.6,0,1.1,0,1.6,0.2c0.9,0.3,1.4,0.9,1.5,1.8c0.1,0.5,0,1.1-0.1,1.6
			c-0.1,0.7-0.3,1.4-0.4,2.1c0,0.1-0.1,0.3-0.1,0.4c-0.1,0.3-0.1,0.7-0.2,1c-0.1,0.4-0.1,0.8-0.1,1.2l0,0c0,0.2,0,0.2-0.3,0.2H9.1
			c-0.1,0-0.1,0-0.1-0.1c0-0.2,0-0.5,0-0.7c0,0,0-0.1,0-0.1c0,0-0.1,0-0.1,0c-0.5,0.5-1.2,0.9-1.9,1c-0.7,0.1-1.4,0.1-2-0.2
			c-0.3-0.1-0.5-0.3-0.7-0.6C4.1,13.5,4,13.2,4,12.9c-0.1-0.9,0.2-1.7,0.7-2.4c0.5-0.6,1.2-1,1.9-1.2C7.2,9.1,7.8,9,8.4,8.9
			c0.3,0,0.7,0,1-0.1l0.1,0c0.1,0,0.1,0,0.1-0.1c0-0.3,0.1-0.5,0-0.8c-0.1-0.5-0.5-0.7-1-0.7c-0.7-0.1-1.5,0-2.2,0.3
			C6.4,7.6,6.2,7.6,6.1,7.7C6,7.7,5.9,7.8,5.8,7.8L5.8,7.8z M9.4,10.2H9.3c-0.1,0-0.1,0-0.2,0c-0.2,0-0.3,0-0.5,0
			c-0.4,0-0.8,0.1-1.2,0.2c-0.7,0.3-1.2,0.7-1.3,1.5c0,0.5,0.1,0.9,0.7,1c0.3,0.1,0.7,0.1,1-0.1c0.7-0.2,1.2-0.7,1.4-1.4
			c0-0.2,0.1-0.3,0.1-0.5c0-0.1,0-0.2,0-0.2C9.4,10.7,9.4,10.5,9.4,10.2z"/>
		<path class="st2" d="M44,7.6c0.1,0,0.2,0.1,0.3,0.1c0.1-0.1,0.1-0.3,0.2-0.4c0.1-0.3,0.3-0.6,0.4-0.9l0,0c0.1-0.2,0.1-0.2-0.1-0.3
			c-0.8-0.3-1.6-0.4-2.5-0.4c-0.5,0-1,0.2-1.4,0.4c-0.8,0.4-1.4,1-1.6,1.8c-0.1,0.3-0.2,0.7-0.1,1c0.1,0.5,0.3,0.9,0.7,1.2
			c0.4,0.3,0.8,0.5,1.3,0.7c0.3,0.1,0.5,0.2,0.8,0.4c0.2,0.1,0.3,0.3,0.3,0.4c0.1,0.4,0,0.7-0.4,1c-0.3,0.3-0.7,0.3-1,0.3
			c-0.5,0-1.1-0.1-1.6-0.3c-0.2-0.1-0.3-0.1-0.5-0.2c-0.1,0-0.1-0.1-0.2-0.1c-0.2,0.4-0.4,0.8-0.6,1.2c0,0.1-0.1,0.2-0.1,0.3
			c0.1,0,0.1,0.1,0.2,0.1c0.1,0.1,0.3,0.1,0.4,0.2c0.7,0.2,1.4,0.3,2.1,0.3c0.5,0,1-0.1,1.5-0.3c1.2-0.4,2-1.2,2.2-2.6
			c0.1-0.7-0.1-1.3-0.7-1.8c-0.4-0.3-0.8-0.5-1.3-0.7c-0.3-0.1-0.6-0.2-0.9-0.4c-0.3-0.2-0.4-0.5-0.3-0.8c0.1-0.4,0.4-0.6,0.8-0.8
			c0.5-0.1,1-0.1,1.4,0C43.6,7.4,43.8,7.5,44,7.6z"/>
	</g>
</g>
</svg>
