<svg viewBox="0 0 999 174" width="999" height="174" xmlns="http://www.w3.org/2000/svg"><path d="M989 156.4V147l4.9-11.4H992l-1.3-1.2 1.3-2.3-3.6.4c-1.1-.8-2.3-1.6-3.6-2.3l1.3-2.5-4.2 1c-2-1-4-2-6-2.7l.6-2.6-3.6 1.5c-3.7-1.3-7.5-2.3-11.2-3v-3l-3.3 2.3c-5.3-1-10.3-1.7-14.5-2V117h-1.2l-1.2 2c-4.5-.4-7.7-.5-9-.5h-.5l-9 .4-1.2-2h-1.2v2.2c-4.2.4-9.2 1-14.5 2L903 119v3c-3.8.7-7.6 1.8-11.3 3l-3.6-1.5.7 2.6a63 63 0 0 0-6.1 2.6l-4.2-1 1.3 2.6-3.6 2.3-3.6-.4 1.3 2.3-1.3 1.2h-1.8l5 11.4-2.9 20.8-1.4-20.4-4.2-9.9h-5.5v-32h4V92.6h-4V79.3 79c0-2-3.2-2.1-3.8-3.4v-1.2c.3 0 .6 0 .8-.2.7-.3 1-.9.6-1.4.2.4 0 .8-.5 1-.5.3-1.3.2-1.7-.2-.3-.4-.2-.9.4-1.2.5-.2 1.1-.1 1.5.1-.5-.3-1.4-.4-2.1-.1-.7.3-1 1-.4 1.5.2.3.5.4.9.5v1.2c-.7 1.2-3.6 1.5-3.6 3.4v13.8h-4.5v12.8h4.5v32h-15v-26.8h4.1V98h-4V84.6v-.3c0-2-3.3-2.2-3.8-3.4v-1.2c.2 0 .5 0 .7-.2.7-.3 1-1 .6-1.4.2.3 0 .8-.4 1-.6.3-1.3.2-1.7-.2-.4-.4-.2-.9.3-1.2.5-.2 1.2-.2 1.6.1-.6-.4-1.4-.5-2.1-.1-.7.3-1 1-.5 1.5.3.3.6.4 1 .4V81c-.7 1.2-3.7 1.5-3.7 3.4V98h-4.4V111h4.4v23.7h-13.6c-.9-12.7-15-16.6-15-16.6s-1.2-.4-1.5-1.1c.9-.3 1.4-.8 1.4-1.5 0-.6-.5-1.2-1.4-1.4v-4.5c.4-.2.6-.5.6-.8 0-.3-.2-.6-.6-.8v-1.3c1.5-.3 2.6-1.2 2.6-2.3 0-1.3-1.4-2.3-3.2-2.4 1.4.1 2.5 1 2.5 2s-1.3 1.8-2.8 1.8c-1.6 0-2.8-.9-2.8-1.9 0-1 1-1.8 2.5-1.9-1.8.1-3.2 1.1-3.2 2.4 0 1.1 1.1 2 2.6 2.3v1.2c-.4.2-.6.5-.6 1 0 .3.3.6.6.8v4.4c-.8.2-1.4.8-1.4 1.4 0 .7.6 1.2 1.4 1.5-.4.7-1.5 1-1.5 1s-14.2 4-15 16.7h-13V111h4.1V98h-4V84.6v-.2c0-2-3.3-2.2-3.8-3.5v-1.2l.8-.1c.6-.3.9-1 .5-1.4.2.3.1.7-.4 1-.6.2-1.3.1-1.7-.3-.4-.4-.2-.8.3-1.1.5-.3 1.2-.2 1.6 0-.6-.3-1.4-.4-2.1 0-.7.3-1 1-.5 1.5l1 .4v1.2c-.7 1.2-3.7 1.5-3.7 3.5V98h-4.4v12.8h4.4v26.9h-16v-32.1h4V92.9h-4V79.5v-.3c0-2-3.2-2.2-3.8-3.4v-1.2c.3 0 .6 0 .8-.2.6-.3 1-1 .6-1.4.2.3 0 .7-.5 1-.5.2-1.3.1-1.7-.3-.3-.3-.2-.8.4-1.1.5-.3 1.1-.2 1.5 0-.5-.3-1.4-.4-2.1 0-.7.3-1 1-.4 1.5.2.2.5.4.9.4v1.3c-.7 1.1-3.6 1.4-3.6 3.4v13.7h-4.5v12.8h4.5v32.1h-17l-2.6 30-1.6-70.7h.8v-.4l-1.8-.6-.1-.1V86h-4.4v2.7l-.1-.2-14.6-6.2v-2.8l-2.7-2h-2v4.9L669 91.7v1l1.6-.8v4l-1.6.7v.5l-2 70.9-2.8-93.3v-5.1h-1.8v3h-2.6v-3h-1.5v3H655v-3h-1.7v3h-.7v-7.8h-36v7.9h-1.2v-3.1h-1.8v3h-3.3v-3h-1.8v3h-3.2v-3h-2.1v5.1l-2.8 94L598 54.5V26.8h-21v1.6h-3.5v-1.6h-15v.7h-25v8.9h1.8L532 168.6l-2.8-113h-8.8v-3.3h5.3v-5h-1.3v-1.9c.7 0 1.3-.6 1.3-1.4 0-.8-.6-1.4-1.4-1.4-.6 0-1.1.4-1.3 1h-2.6v-1.9h5.3v-1.4h-1.3v-.4h.6c1.2 0 2-.7 2-1.8 0-1-.9-1.9-2-1.9s-2 .8-2 1.9v.2h-2.5v-1.7h-2.9V2.1h-2.1V0h-3.9v2h-2.2v34.6h-3.6v1.7h-2.3a2 2 0 0 0-1.6-.7c-1 0-1.8.6-1.8 1.4 0 .5.4 1 .9 1.2h-.2v1.5h5v1.9h-2.7c-.2-1.1-1.2-2-2.3-2-1.3 0-2.4 1-2.4 2.3 0 1.3 1.1 2.3 2.4 2.3.7 0 1.3-.3 1.7-.8v1.8h-1.7v5h5v3.3h-36l-3 112.2-2.3-77.5h-15v-3.6h-9v-5.7l-5.2-4.7-2.7-16.4-1.2-1.2-.3-6.3h-.8l-.4 6.4-1.4 1.3-2.8 16.2L421 81v5.7h-9.5v3.6h-13.2l-2.2 77.5-2.2-49.2h.6V115h.2v-.4h-.2v-2.5h-2v.9l-1-1.2-1.5 1.8h-5.7l-1.2-1.8-1.3 1.8H371v-.7l.5-.6h-.5v-.4l.5-.7h-.5v-3h-3.2v-2.4h.6l-1.2-2v-.5h.3v-.2h-.3v-.4h-.4v.4h-.2v.2h.2v.5l-1.4 2h.6v2.4h-3.5v-3.5h.5v-.7h-1.2v-7.8h.7v-.6h-.7v-2.9h.7v-.4h-.5V90h.5v-2.6h.2v-.4h-.2l-1.1-2.2v-.4h.2-.2v-.2h-.3v.1h-.2v.1h.2v.3l-1.2 2.3h-.2v.4h.2v.4h-1v-.6h-1.6v.6h-.8v-.6H355v.6h-.7v-.6h-1.6v.6h-1v-.6h-1.3v.6h-.8v-.6h-1.4v.6h-.8v-.6h-1.7v.6h-1v-.4h.2V87h-.2l-1.3-2.3v-.3h.3-.3v-.2h-.2v.1h-.2v.1h.2v.4l-1.1 2.2h-.2v.4h.2V90h.5v2.2h-.5v.5h.7v2.9h-.7v.6h.7v7.7h-1.2v.7h.5v3.6h-3.4v-2.5h.5l-1.4-2v-.4h.3v-.3h-.3v-.3h-.4v.3h-.2v.3h.2v.5l-1.2 2h.6v2.4h-3.1v3h-.5l.5.6v.4h-.5l.5.6v.7h-10.8l-1.4-1.7-1.2 1.7h-5.6l-1.5-1.7-1 1.1v-.8h-2v2.5h-.2v.4h.2v3.4h.6v1.1h.2l-.2 1.7v1.8H318.5c1.1-.1 14.4-4 17.2-5.2l-30.8 49 23.4-44.1s-7 3.2-9.7 3.2h-11.2c-.6-.4-1-.7-1.6-.9l.5-2.5h-1.7l-1 .5-.1.8a76 76 0 0 0-16-4.9c-8-1.6-17.4-2.5-27.3-2.5a121.5 121.5 0 0 0-43 7.3l-.1-.7-1-.5h-1.7l.4 2.4-2 1c-4.7.1-8.6.2-10.8.1-2.7 0-9.7-3.2-9.7-3.2l18.8 33h-23l-94.3-50c.4-3.4 1.2-6.7 2.4-10.3H92s-1.3.6-1.3 1l-.5 3.8-2.9 2-2.1-1.2-.6-4.7c0-.3-1.3-1-1.3-1h-4.2c1.3 3.8 2 7.3 2.5 10.8l-71.6 49.5H0v5.7h66.6a460 460 0 0 0-5.2 12.6h8.2l4.2-12.6h27.7l4.2 12.6h8.2l-5.2-12.6h102.7L185 174h814v-17.7h-10zM91.4 129c.8 3.4 2 7.3 3.5 12.1l-5.7-10.6 1-3 1.2 1.5zM88.3 115l-.7-.5 1.3-1.3.4.3v1.4h-1v.1zm.7 3l-.2.1-.2-.2h.4zm-.2-5.2l-.9-.6h1.3v.2l-.4.4zm.5 0v.3l-.1-.1v-.1zm-.7.2l-1.2 1.2-1.3-1 1.2-1 1.3.8zm-2.5-.2v-.6h.7l-.7.6zm-.1-3.4v-.6l1 .6h-1zm.1 4.3l1 .8-.5.5h-.5v-1.3zm1.3 1l.4.3H87l.3-.3zm2 3.2c.2.3.2.6.2.9l-.5-.4.4-.5zm0-9.7v-.1l.2-.2-.1.3zm0 .3v.9h-1.8l1.4-1.1.4.2zm-2.1.7l-1.4-.8 1.4-1.1 1.4.8-1.4 1.1zm-.8 8.7l-.4.4-.2-.2v-.2h.6zm.5 0h1l.6.5-1 1.4-1.2-1.2.6-.7zm.6 2.4l.2.4h-.5l.3-.4zm.2 3.1h1.8L89 125l-1-1.4zm.9 1.8l-1 2-1.1-2 1-1.5 1.1 1.5zm.5-4.5h-.9l-.5-.7 1.1-1.3.7.6.1.6-.5.8zm.6-.2v.2h-.2l.2-.2zm-.3-17.2l.4-.3v.5l-.4-.2zm.3.5h-1l.4-.3.6.3zm-.2 2.7v1l-.6.3-1.4-.8.7-.5h1.3zm-2.3.4l-.5-.3h.8l-.3.3zm-.3.2l-1.2.8-.1-1.4h.4l.9.6zm-1 11.5h-.2.1zm.1.2l1.2 1.2-.5.7h-1l-.2-.3.1-1.1.4-.5zm1.2 4.6l-1 1.5-.7-1.5h1.7zm0 4.3l-1.2 2.3-.8-2.8 1-1.5 1 2zm.3.4l1.2 2.2-1.4 4-1-3.7 1.2-2.5zm.2-.4l1.2-2.1 1 1.4-1 2.8-1.2-2.1zm3-1.6l.5 1.8-.7-1 .2-.8zm-.2-.7l-.4 1.2-1-1.4.9-1.7h.2l.3 1.9zm-.3-24.8l-.2 2-.9.6-1.5-.8 2.6-1.8zm-2.9 2l1.5.8-.6.4H86l-.3-.1 1.6-1.1zm-.3-.2l-1.6 1.1-.2-2 1.8 1zm-2 21l1 1.8-.9 1.4-.4-1.4.3-1.8zm-.5 2.7l.2 1-.7 1.2.5-2.2zm-.8 3.3l1.2-1.8.8 3-5.2 9.8 3.2-11zm-73.2 26.2l71.1-49.1.2 2-64.8 47.1h-6.5zm7 0L82 109v2L24 155.7h-6.4zm7 0L82 111.5v2.2l-51 42h-6.4zm7 0L82 114.2c0 .8 0 1.7-.2 2.5l-43.8 39h-6.4zm7 0l43.2-38.5-.3 3L45 155.6h-6.5zm7 0l35.7-35-.7 3.7L52 155.7h-6.4zm6.8 0l28-30.6c-.3 1.8-.8 3.6-1.4 5.4l-20.1 25.2h-6.5zm16.7 0h-2.9l7.8-11.6-5 11.6zm-3.4 0h-6.4l19.3-24.2c-1.1 3.5-2.4 7-4 10.8l-8.9 13.4zm10 0l4.3-13.2 6-11.4 1 3.8-7.7 20.8h-3.6zm4 0l7.6-20 5.7 20H79.8zm13.8 0l-6-20.8 1.5-4 6.5 12.3 4 12.5h-6zm12.8 0c-2.4-5.7-4.7-10.9-6.5-15.7l11.7 15.7h-5.2zm5.7 0l-12.7-17c-1.3-3.2-2.3-6.3-3.2-9.2l24.9 26.2h-9zm9.4 0l-25.6-27-1.2-4.8 35.6 31.8h-8.8zm9.4 0l-36.3-32.4-.6-3.4 45.8 35.7h-8.9v.1zm9.5 0l-46.5-36.3-.3-2.8 55.7 39.1h-9zm9.5 0l-56.3-39.5-.2-2.5 65.4 42h-9zm9.5 0l-65.9-42.5V111l74.9 44.7h-9v.1zm9.6 0l-75.5-45.1.1-2.2 84.4 47.3h-9zm9.6 0l-85-47.6.3-2 93.7 49.6h-9zm119.3-33l-4.5 1.2h-.4l-3.2-3.5c3 .7 5.6 1.4 8 2.3zm.2.5l-2.3 1-1.2-.1 3.5-1zm-8.4.1l-3-.4.1-.7 2-1.6.9 2.7zm-2.2-3.4l-5.8 2.6h-.1l-3-4.1 9 1.5zm-6.8 2.5h-.6l-.8-2 1.4 2zm-1.5-.1l-4.9-.4 3.2-3.5 1.7 3.9zm-5.8-.4l-1.9-.1 4.3-2.6-2.4 2.7zm3.1-3.8l-6 3.6h-.1l-3.9-4.3c3.5.1 6.8.3 10 .7zm-7 3.6h-1.2l-1.4-2.9 2.6 2.9zm-2 0l-4-.2 2.1-3.6 1.9 3.7zm-5-.2h-2.2l4.5-3.6-2.2 3.6zm-2.3-4.3h4.3l-5.2 4.3h-.6l-3.9-4.2h5.4zm-2.4 4.3h-.2l-.5-.7.7.7zm-1 0l-4.2.2 1.7-3.8 2.5 3.7zm-5 .2l-3.4.1 5.3-4.2-2 4zm1.1-4.3l-5.5 4.5h-.1l-4.2-3.7c3.1-.4 6.4-.6 9.8-.8zm-6.6 4.5h-.2l-1-1 1.2 1zm-1 0l-4.3.4 1-3.6 3.3 3.3zm-5.2.4l-3.6.3 4.6-3.6-1 3.3zm-9-1.1v-.5l3 2.2-3.7.5.6-2.2zm-11.1 4l-2.3.5-.2-.7 2.3-1.3.9-.4-.7 1.9zm.8-.2c0-.3.2-.5.3-.8l.3-.8 1.6 1.1-1.7.4-.5.1zm.8.8l2.6-.5.4.2.3.3h-3.3zm2.3-1.4zm-2-1.5a92 92 0 0 1 8-2.4l-4.2 3.5-.8.2-3-1.3zm7 2.8h-3l-.9-.6 4.3-.7c0 .5-.2.9-.4 1.3zm-2-1.8l3.4-2.8-.6 2.4-2.8.4zm2.9 1.8l.4-1.4 4-.5.2 1.8h-4.6zm5.9-3.5H234l-2.6-2 1.7-.4c2.5-.5 5-1 7.7-1.3l-5 3.9-.3-.2zm1 3.4l-.1-.6.7.6h-.6zm2.4 0h-.8l-2-1.6v-.4l3.6-.3-.8 2.2zm.9 0l.7-2.4 5.4-.4 2.5 2.6-8.6.1zm9.6-.2l-2.6-2.6 4.3-.2-1.2 2.8h-.5zm4.2-.1h-3l1.3-2.7h1.7v2.7zm2.1 0l-.3-2.4-.2-.4h2l1.8 2.7h-3.3zm4-.1l-1.7-2.7h3.8l-1.7 2.7h-.3zm5.3-2.2l-.3 2.3h-3.7l1.6-2.8h2.6l-.2.5zm1.8 2.3v-2.8l.9.1 1.4 2.7h-2.3zm3 0l-1.3-2.7 4 .1-2.5 2.6h-.2zm1.1 0l2.4-2.5 6.2.4 1 2.3-9.6-.1zm10.4.2l-1-2.2 3.6.3-2.6 2zm2.5 0h-1.5l1.8-1.3-.3 1.4zm1.2-3.3l-.5.5h-.2l-1.5-.1 5.5-2.5h.1l-2.7 2h-.7zm1.2 3.4l.2-1.7 3.4.4.4 1.4h-4zm3.5-4.2l2 2.3-1.4-.2-.6-2zm1.2 4.3l-.4-1.3 3.7.6-1.4.7h-2zm3.1 0l1.2-.6a61.6 61.6 0 0 1 3.5.7H294zm2.6-1.2l2.5-1.3 2.1 2.2-4.6-1zm6.3 1.3h-.4l-1.9-2 2.5 1-.2 1z" fill="#3db83a"/></svg>